<svg width="38" height="38" viewBox="0 0 38 38" fill="none" xmlns="http://www.w3.org/2000/svg">
<path d="M20.3173 34.5181C25.2668 33.527 31.6667 29.966 31.6667 20.759C31.6667 12.3815 25.5344 6.80187 21.1248 4.23845C20.1447 3.66845 19 4.41737 19 5.54945V8.44379C19 10.727 18.0405 14.8943 15.3742 16.628C14.0125 17.5131 12.54 16.1879 12.3753 14.5729L12.2392 13.246C12.0808 11.7039 10.5102 10.7681 9.27833 11.7086C7.06325 13.3949 4.75 16.3557 4.75 20.7574C4.75 32.0165 13.1242 34.8332 17.3106 34.8332C17.5555 34.8332 17.8109 34.8253 18.0769 34.8095C16.0091 34.6337 12.6667 33.3512 12.6667 29.2029C12.6667 25.957 15.0337 23.7641 16.8324 22.6954C17.3169 22.4104 17.8822 22.7825 17.8822 23.3445V24.2787C17.8822 24.9912 18.1592 26.1075 18.8163 26.8706C19.5605 27.7351 20.6514 26.8295 20.7385 25.6926C20.767 25.3348 21.128 25.1068 21.4383 25.2873C22.4532 25.881 23.75 27.1477 23.75 29.2029C23.75 32.4455 21.9624 33.937 20.3173 34.5181Z" fill="#FF2D55"/>
</svg>
