<svg width="200" height="90" viewBox="0 0 200 90" fill="none" xmlns="http://www.w3.org/2000/svg">
<path d="M83.4838 67.8947C82.1202 69.2663 80.3015 70.0325 78.4092 70.0325C76.517 70.0325 74.6983 69.2663 73.3347 67.8947C60.8644 55.2623 44.1552 41.1527 52.3019 20.6657C56.7143 9.58646 67.2913 2.5 78.4092 2.5C89.5272 2.5 100.108 9.59068 104.517 20.6657C112.655 41.1231 95.9864 55.3045 83.4838 67.8947Z" stroke="url(#paint0_linear_809_2420)" stroke-width="5"/>
<path d="M59.1403 70.0325C52.0918 71.7446 47.5791 74.3711 47.5791 77.3216C47.5791 82.4747 61.3832 86.6554 78.4091 86.6554C95.435 86.6554 109.239 82.4747 109.239 77.3216C109.239 74.3711 104.726 71.7446 97.6779 70.0325" stroke="url(#paint1_linear_809_2420)" stroke-width="5" stroke-linecap="round"/>
<path d="M76.7982 48.5988C74.0173 48.5988 71.6173 47.913 69.5982 46.5416C67.5792 45.1702 66.0173 43.3416 64.9125 41.0559C63.8459 38.7321 63.3125 36.1797 63.3125 33.3988C63.3125 30.5035 63.9221 27.913 65.1411 25.6273C66.3982 23.3035 68.1697 21.4749 70.4554 20.1416C72.7792 18.7702 75.5411 18.0845 78.7411 18.0845C81.903 18.0845 84.5887 18.7702 86.7982 20.1416C89.0459 21.4749 90.7601 23.3035 91.9411 25.6273C93.1601 27.913 93.7697 30.4654 93.7697 33.2845C93.7697 33.2845 93.7697 46.332 93.7697 47.1609C93.7697 47.9897 87.1982 48.5323 87.1982 47.1609C87.1982 45.7894 87.1982 42.4845 87.1982 42.4845H87.084C86.5125 43.5511 85.7697 44.5607 84.8554 45.513C83.9411 46.4273 82.8173 47.1702 81.484 47.7416C80.1506 48.313 78.5887 48.5988 76.7982 48.5988ZM78.5697 42.9988C80.284 42.9988 81.7697 42.5797 83.0268 41.7416C84.3221 40.8654 85.3125 39.7035 85.9982 38.2559C86.7221 36.7702 87.084 35.113 87.084 33.2845C87.084 31.4559 86.7411 29.8369 86.0554 28.4273C85.3697 26.9797 84.3982 25.8369 83.1411 24.9988C81.884 24.1226 80.3792 23.6845 78.6268 23.6845C76.7982 23.6845 75.2363 24.1226 73.9411 24.9988C72.6459 25.8369 71.6554 26.9797 70.9697 28.4273C70.284 29.8749 69.9411 31.513 69.9411 33.3416C69.9411 35.1321 70.284 36.7702 70.9697 38.2559C71.6554 39.7035 72.6268 40.8654 73.884 41.7416C75.1792 42.5797 76.7411 42.9988 78.5697 42.9988Z" fill="url(#paint2_linear_809_2420)"/>
<path d="M21.6725 65.5664C17.4198 65.5664 13.6578 64.6612 10.3865 62.8509C7.11515 61.0407 4.55262 58.4624 2.69888 55.1161C0.899655 51.7149 4.36531e-05 47.7104 4.36531e-05 43.1024C4.36531e-05 43.1024 -5.45664e-05 6.15717 4.36531e-05 4.51037C0.000141873 2.86358 9.48686 2.86388 9.40507 4.51037C9.32329 6.15686 9.40507 28.9492 9.40507 28.9492H9.48686C10.3592 27.4681 11.5042 26.179 12.9217 25.0818C14.3393 23.9847 15.9204 23.1344 17.6651 22.5309C19.4098 21.9275 21.2636 21.6258 23.2264 21.6258C27.2065 21.6258 30.6959 22.531 33.6946 24.3412C36.7478 26.0967 39.1195 28.5652 40.8097 31.747C42.5544 34.9287 43.4267 38.6589 43.4267 42.9378C43.4267 46.2841 42.9088 49.3561 41.8729 52.1538C40.8915 54.8967 39.4466 57.2829 37.5384 59.3127C35.6846 61.3424 33.422 62.9058 30.7504 64.0029C28.0788 65.0452 25.0529 65.5664 21.6725 65.5664ZM21.6725 57.5024C24.0715 57.5024 26.1978 56.9264 28.0516 55.7744C29.9053 54.5675 31.3501 52.9218 32.3861 50.8372C33.422 48.7527 33.9399 46.3389 33.9399 43.5961C33.9399 40.9081 33.422 38.5218 32.3861 36.4372C31.3501 34.3527 29.9053 32.7069 28.0516 31.5001C26.2523 30.2932 24.1533 29.6898 21.7543 29.6898C19.3553 29.6898 17.229 30.2932 15.3752 31.5001C13.5215 32.6521 12.0766 34.2704 11.0407 36.3549C10.0048 38.4395 9.48686 40.8532 9.48686 43.5961C9.48686 46.3389 10.0048 48.7527 11.0407 50.8372C12.0766 52.9218 13.5215 54.5675 15.3752 55.7744C17.229 56.9264 19.3281 57.5024 21.6725 57.5024Z" fill="url(#paint3_linear_809_2420)"/>
<path d="M124.039 64.5789C122.24 64.5789 120.631 64.1401 119.214 63.2624C117.796 62.3847 116.651 61.2052 115.779 59.7241C114.961 58.2429 114.552 56.6247 114.552 54.8692C114.552 53.1138 114.988 51.5229 115.861 50.0967C116.733 48.6704 117.933 47.4361 119.459 46.3938L137.615 34.4624C138.16 34.1881 138.487 33.8864 138.596 33.5572C138.76 33.2281 138.842 32.899 138.842 32.5698C138.842 32.0761 138.651 31.6372 138.269 31.2532C137.942 30.8692 137.479 30.6772 136.879 30.6772H116.597C116.597 30.6772 109.155 22.6132 116.597 22.6132C124.039 22.6132 139.66 22.6132 139.66 22.6132C141.459 22.6132 143.04 23.0521 144.403 23.9298C145.821 24.8075 146.938 25.9869 147.756 27.4681C148.628 28.9492 149.065 30.5675 149.065 32.323C149.065 34.0784 148.628 35.6692 147.756 37.0955C146.884 38.5218 145.684 39.7561 144.158 40.7984L126.084 52.7298C125.593 53.0041 125.239 53.3058 125.021 53.6349C124.857 53.9641 124.775 54.2932 124.775 54.6224C124.775 55.1161 124.966 55.5549 125.348 55.9389C125.729 56.3229 126.22 56.5149 126.82 56.5149C126.82 56.5149 145.232 56.2681 148.247 56.5149C151.262 56.7618 148.247 64.5789 148.247 64.5789H124.039Z" fill="url(#paint4_linear_809_2420)"/>
<path d="M175.71 65.5664C171.73 65.5664 168.296 64.5789 165.406 62.6041C162.516 60.6292 160.281 57.9961 158.7 54.7047C157.173 51.3584 156.41 47.6829 156.41 43.6784C156.41 39.5092 157.282 35.7789 159.027 32.4875C160.826 29.1412 163.361 26.5081 166.633 24.5881C169.958 22.6132 173.911 21.6258 178.491 21.6258C183.016 21.6258 186.86 22.6132 190.022 24.5881C193.239 26.5081 195.693 29.1412 197.383 32.4875C199.128 35.7789 200 39.4544 200 43.5138C200 43.5138 200 60.0338 200 62.6041C200 65.1744 190.022 64.5789 190.022 62.6041C190.022 60.6292 190.595 56.7618 190.595 56.7618H190.431C189.614 58.2978 188.55 59.7515 187.242 61.1229C185.933 62.4395 184.325 63.5092 182.417 64.3321C180.508 65.1549 178.273 65.5664 175.71 65.5664ZM178.246 57.5024C180.699 57.5024 182.826 56.8989 184.625 55.6921C186.479 54.4304 187.896 52.7572 188.878 50.6727C189.913 48.5332 190.431 46.1469 190.431 43.5138C190.431 40.8807 189.941 38.5492 188.959 36.5195C187.978 34.4349 186.588 32.7892 184.788 31.5824C182.989 30.3207 180.836 29.6898 178.328 29.6898C175.71 29.6898 173.475 30.3207 171.621 31.5824C169.768 32.7892 168.35 34.4349 167.369 36.5195C166.387 38.6041 165.897 40.9629 165.897 43.5961C165.897 46.1744 166.387 48.5332 167.369 50.6727C168.35 52.7572 169.74 54.4304 171.54 55.6921C173.393 56.8989 175.629 57.5024 178.246 57.5024Z" fill="url(#paint5_linear_809_2420)"/>
<defs>
<linearGradient id="paint0_linear_809_2420" x1="50.1482" y1="2.5" x2="116.625" y2="58.1382" gradientUnits="userSpaceOnUse">
<stop stop-color="#00BBFF"/>
<stop offset="1" stop-color="#0077FF"/>
</linearGradient>
<linearGradient id="paint1_linear_809_2420" x1="47.5791" y1="70.0325" x2="55.9345" y2="101.026" gradientUnits="userSpaceOnUse">
<stop stop-color="#00BBFF"/>
<stop offset="1" stop-color="#0077FF"/>
</linearGradient>
<linearGradient id="paint2_linear_809_2420" x1="63.3125" y1="18.0845" x2="93.8268" y2="48.5416" gradientUnits="userSpaceOnUse">
<stop stop-color="#00BBFF"/>
<stop offset="1" stop-color="#0077FF"/>
</linearGradient>
<linearGradient id="paint3_linear_809_2420" x1="0" y1="3.27539" x2="35.3706" y2="116.841" gradientUnits="userSpaceOnUse">
<stop stop-color="#00BBFF"/>
<stop offset="1" stop-color="#0077FF"/>
</linearGradient>
<linearGradient id="paint4_linear_809_2420" x1="0" y1="3.27539" x2="35.3706" y2="116.841" gradientUnits="userSpaceOnUse">
<stop stop-color="#00BBFF"/>
<stop offset="1" stop-color="#0077FF"/>
</linearGradient>
<linearGradient id="paint5_linear_809_2420" x1="0" y1="3.27539" x2="35.3706" y2="116.841" gradientUnits="userSpaceOnUse">
<stop stop-color="#00BBFF"/>
<stop offset="1" stop-color="#0077FF"/>
</linearGradient>
</defs>
</svg>
