<svg width="28" height="28" viewBox="0 0 28 28" fill="none" xmlns="http://www.w3.org/2000/svg">
<path d="M14.1867 13.5554C14.1517 13.5554 14.1284 13.5554 14.0934 13.5554C14.0351 13.5437 13.9534 13.5437 13.8834 13.5554C10.5001 13.4504 7.94507 10.7904 7.94507 7.51203C7.94507 4.17536 10.6634 1.45703 14.0001 1.45703C17.3367 1.45703 20.0551 4.17536 20.0551 7.51203C20.0434 10.7904 17.4767 13.4504 14.2217 13.5554C14.2101 13.5554 14.1984 13.5554 14.1867 13.5554ZM14.0001 3.20703C11.6317 3.20703 9.69507 5.1437 9.69507 7.51203C9.69507 9.84536 11.5151 11.7237 13.8367 11.8054C13.8951 11.7937 14.0584 11.7937 14.2101 11.8054C16.4967 11.7004 18.2934 9.82203 18.3051 7.51203C18.3051 5.1437 16.3684 3.20703 14.0001 3.20703Z" fill="#EFEFFF"/>
<path d="M14.1979 26.3096C11.9112 26.3096 9.61288 25.7263 7.87454 24.5596C6.25288 23.4863 5.36621 22.0163 5.36621 20.418C5.36621 18.8196 6.25288 17.338 7.87454 16.253C11.3745 13.9313 17.0445 13.9313 20.5212 16.253C22.1312 17.3263 23.0295 18.7963 23.0295 20.3946C23.0295 21.993 22.1429 23.4746 20.5212 24.5596C18.7712 25.7263 16.4845 26.3096 14.1979 26.3096ZM8.84288 17.723C7.72288 18.4696 7.11621 19.4263 7.11621 20.4296C7.11621 21.4213 7.73454 22.378 8.84288 23.113C11.7479 25.0613 16.6479 25.0613 19.5529 23.113C20.6729 22.3663 21.2795 21.4096 21.2795 20.4063C21.2795 19.4146 20.6612 18.458 19.5529 17.723C16.6479 15.7863 11.7479 15.7863 8.84288 17.723Z" fill="#EFEFFF"/>
</svg>
